<svg xmlns="http://www.w3.org/2000/svg" width="35.25" height="35.25" viewBox="0 0 35.25 35.25">
  <path id="bath" d="M32.733,21.4v3.777A7.335,7.335,0,0,1,30.215,30.8V34.62a.607.607,0,0,1-.63.63H28.326a.607.607,0,0,1-.63-.63V32.3a7.588,7.588,0,0,1-2.517.433H10.072A7.582,7.582,0,0,1,7.554,32.3v2.164a.851.851,0,0,1-.187.561.56.56,0,0,1-.444.226H5.664a.559.559,0,0,1-.443-.226.847.847,0,0,1-.186-.561V30.8a7.333,7.333,0,0,1-2.517-5.626V21.4H32.733ZM13.848,13.219a.607.607,0,1,1-.177-.452A.613.613,0,0,1,13.848,13.219Zm1.259-1.259a.607.607,0,1,1-.177-.452A.613.613,0,0,1,15.108,11.96ZM13.848,10.7a.607.607,0,1,1-.177-.452A.613.613,0,0,1,13.848,10.7Zm2.517,0a.607.607,0,1,1-.177-.452A.613.613,0,0,1,16.366,10.7ZM15.107,9.441a.607.607,0,1,1-.177-.452A.613.613,0,0,1,15.107,9.441ZM13.847,8.182a.607.607,0,1,1-.177-.452A.613.613,0,0,1,13.847,8.182Zm21.4,10.072v1.259a.607.607,0,0,1-.63.63H.63a.607.607,0,0,1-.63-.63V18.254a.607.607,0,0,1,.63-.63H2.518V5.036a4.852,4.852,0,0,1,1.476-3.56A4.851,4.851,0,0,1,7.553,0a4.865,4.865,0,0,1,3.619,1.534A3.674,3.674,0,0,1,13.1,1.3a3.733,3.733,0,0,1,1.829.767l.433-.433a.27.27,0,0,1,.433,0l.826.826a.27.27,0,0,1,0,.433L10.445,9.068a.27.27,0,0,1-.433,0l-.826-.826a.27.27,0,0,1,0-.433l.433-.433a3.721,3.721,0,0,1-.8-2.045,3.661,3.661,0,0,1,.463-2.124,2.519,2.519,0,0,0-3.511.049,2.426,2.426,0,0,0-.737,1.78V17.625H34.62a.607.607,0,0,1,.63.63ZM17.625,9.442a.607.607,0,1,1-.177-.452A.613.613,0,0,1,17.625,9.442ZM16.366,8.183a.607.607,0,1,1-.177-.452A.613.613,0,0,1,16.366,8.183ZM15.107,6.924a.607.607,0,1,1-.177-.452A.613.613,0,0,1,15.107,6.924Zm3.777,1.259a.607.607,0,1,1-.177-.452A.613.613,0,0,1,18.883,8.183ZM17.624,6.924a.607.607,0,1,1-.177-.452A.613.613,0,0,1,17.624,6.924ZM16.365,5.664a.607.607,0,1,1-.177-.452A.613.613,0,0,1,16.365,5.664Zm3.777,1.259a.607.607,0,1,1-.177-.452A.613.613,0,0,1,20.142,6.924ZM18.882,5.664a.607.607,0,1,1-.177-.452A.613.613,0,0,1,18.882,5.664Zm2.517,0a.607.607,0,1,1-.177-.452A.613.613,0,0,1,21.4,5.664Z" fill="#1eb2e2"/>
</svg>
