<svg xmlns="http://www.w3.org/2000/svg" width="35.25" height="22.031" viewBox="0 0 35.25 22.031">
  <path id="bed" d="M4.406,13.219H34.149a1.117,1.117,0,0,1,1.1,1.1v7.711H30.844V17.625H4.406v4.406H0V1.1A1.059,1.059,0,0,1,.327.327,1.059,1.059,0,0,1,1.1,0H3.3a1.059,1.059,0,0,1,.775.327,1.059,1.059,0,0,1,.327.775ZM14.32,7.711A4.248,4.248,0,0,0,13.03,4.6,4.24,4.24,0,0,0,9.914,3.3,4.251,4.251,0,0,0,6.8,4.6,4.243,4.243,0,0,0,5.508,7.711,4.243,4.243,0,0,0,6.8,10.827a4.251,4.251,0,0,0,3.116,1.291,4.24,4.24,0,0,0,3.116-1.291A4.248,4.248,0,0,0,14.32,7.711Zm20.93,4.406v-1.1a6.365,6.365,0,0,0-1.937-4.673,6.373,6.373,0,0,0-4.673-1.937H16.523a1.117,1.117,0,0,0-1.1,1.1v6.609Z" fill="#1eb2e2"/>
</svg>
