<svg xmlns="http://www.w3.org/2000/svg" width="36" height="30.848" viewBox="0 0 36 30.848">
  <g id="suit-heart" transform="translate(0 -2.25)">
    <path id="Path_26" data-name="Path 26" d="M18,14.031l2.011-4.025A13.188,13.188,0,0,1,22.6,6.417,6.315,6.315,0,0,1,27,4.5a6.662,6.662,0,0,1,6.75,6.57c0,2.725-1.247,4.648-4.2,7.583-.758.752-1.622,1.564-2.579,2.459A118.512,118.512,0,0,0,18,30.256a118.316,118.316,0,0,0-8.969-9.144c-.956-.9-1.823-1.71-2.579-2.459C3.5,15.718,2.25,13.8,2.25,11.07A6.662,6.662,0,0,1,9,4.5a6.313,6.313,0,0,1,4.4,1.917,13.188,13.188,0,0,1,2.592,3.589Zm.882,18.657a1.154,1.154,0,0,1-1.764,0,109.581,109.581,0,0,0-9.547-9.857C2.925,18.468,0,15.725,0,11.07A8.91,8.91,0,0,1,9,2.25c3.6,0,6.118,2.363,7.659,4.518A17.025,17.025,0,0,1,18,9a16.988,16.988,0,0,1,1.341-2.232C20.882,4.61,23.4,2.25,27,2.25a8.91,8.91,0,0,1,9,8.82c0,4.655-2.925,7.4-7.571,11.761a110.754,110.754,0,0,0-9.547,9.855Z" fill="#0dace0" fill-rule="evenodd"/>
  </g>
</svg>
