<svg xmlns="http://www.w3.org/2000/svg" width="32.495" height="32.506" viewBox="0 0 32.495 32.506">
  <g id="Group_26" data-name="Group 26" transform="translate(0)">
    <path id="Path_24" data-name="Path 24" d="M-581.291,21.282c.252.054.509.09.755.165a3.229,3.229,0,0,1,2.045,1.828,2.013,2.013,0,0,1,.146.741c.037.85.069,1.7.07,2.553q.013,12,.015,24a.447.447,0,0,1-.4.472.46.46,0,0,1-.57-.276,3.594,3.594,0,0,1-.136-.594,2.151,2.151,0,0,0-1.713-1.741,2.184,2.184,0,0,0-2.522,1.648,2.252,2.252,0,0,0,1.245,2.459,1.38,1.38,0,0,0,.633.151q8.369-.007,16.737-.005,4.8,0,9.6-.029c.254,0,.508-.017.763-.025a1.006,1.006,0,0,0,.6-.213,2.237,2.237,0,0,0,.663-.835.42.42,0,0,0,.029-.176q0-11.5,0-23.008c0-.551-.058-1.1-.094-1.654a1.032,1.032,0,0,0-.289-.573,1.485,1.485,0,0,0-1.237-.508c-.9-.026-1.8-.06-2.7-.061q-9.48-.01-18.96-.008a.549.549,0,0,1-.533-.487.527.527,0,0,1,.538-.541c2.112-.014,4.224-.038,6.336-.039q6.751,0,13.5.012c.636,0,1.271.024,1.907.024a2.531,2.531,0,0,1,2.131,1.138,2.522,2.522,0,0,1,.469,1.539q0,9.886.013,19.773,0,2.231-.014,4.462a1.477,1.477,0,0,1-.1.51,2.917,2.917,0,0,1-1.868,1.752.658.658,0,0,1-.211.023l-7.1.01q-7.166.009-14.332.017c-1.891,0-3.782-.051-5.672-.019a3.34,3.34,0,0,1-3.111-2.534,1.032,1.032,0,0,1-.019-.2q-.025-2.4-.049-4.793c0-.093-.012-.186-.018-.279V29.112c.006-.093.017-.186.018-.279q.025-2.4.049-4.793a.922.922,0,0,1,.024-.213,3.276,3.276,0,0,1,1.854-2.243,6.448,6.448,0,0,1,1.041-.3Zm1.956,26.8c0-.1,0-.158,0-.217q0-2.355,0-4.711-.014-9.546-.031-19.091a.655.655,0,0,0-.066-.265,4.609,4.609,0,0,0-.224-.405,2.161,2.161,0,0,0-2.4-.942,2.166,2.166,0,0,0-1.369,1.149,1.155,1.155,0,0,0-.192.536q-.007,9.388-.021,18.776c0,1.587.02,3.173.032,4.76,0,.116.015.232.024.358A3.415,3.415,0,0,1-579.334,48.082Z" transform="translate(584.741 -21.282)" fill="#1eb2e2"/>
    <path id="Path_25" data-name="Path 25" d="M-320.905,230.078v8.691c.053,0,.1.01.149.009q3.906-.005,7.813-.013c.53,0,1.061-.031,1.591-.037.158,0,.2-.081.228-.214a6.6,6.6,0,0,1,.468-1.615,5.894,5.894,0,0,1,4.627-3.5,4.924,4.924,0,0,1,.643-.059c.488-.01.678.135.688.618.022,1.027.008,2.055,0,3.083a.962.962,0,0,1-.055.275.519.519,0,0,1-.859.19.327.327,0,0,1-.077-.191q-.033-.8-.052-1.591c-.009-.348-.005-.7-.015-1.045-.006-.217-.053-.253-.263-.207a4.911,4.911,0,0,0-4,4c-.054.281-.072.569-.11.853a.469.469,0,0,1-.538.477q-5.026.017-10.051.028c-.3,0-.607-.032-.909-.062-.26-.025-.323-.095-.332-.358-.01-.309-.012-.619-.012-.929q0-10.16,0-20.32c0-.2,0-.4.007-.6.01-.313.142-.445.458-.451.7-.014,1.4-.035,2.106-.035q8.75,0,17.5,0a.492.492,0,0,1,.456.459q0,10.906,0,21.813a.468.468,0,0,1-.464.464c-2.19,0-4.379-.014-6.569.013a.529.529,0,0,1-.459-.768.5.5,0,0,1,.463-.294c1.919.012,3.837.007,5.756.007h.208v-8.7h-.19c-.84-.008-1.681-.01-2.521-.026a.507.507,0,0,1-.426-.812.413.413,0,0,1,.271-.176c.623-.034,1.247-.05,1.872-.065.326-.008.652,0,.985,0V218.186h-7.573c0,.072,0,.137,0,.2q-.014,1.825-.028,3.649a.584.584,0,0,1-.5.455.451.451,0,0,1-.5-.381q-.044-.7-.056-1.407c-.012-.779-.012-1.559-.017-2.339,0-.066,0-.131,0-.211h-9.7v10.828h9.707V228.8q0-.738,0-1.476c0-.183.292-.458.515-.488a.5.5,0,0,1,.518.351.991.991,0,0,1,.029.229c0,.691,0,1.382,0,2.073a.605.605,0,0,1-.254.528.382.382,0,0,1-.212.056q-4.056,0-8.111,0h-2.2Z" transform="translate(330.698 -210.581)" fill="#1eb2e2"/>
  </g>
</svg>
